<svg xmlns="http://www.w3.org/2000/svg" xmlns:xlink="http://www.w3.org/1999/xlink" contentStyleType="text/css" data-diagram-type="CLASS" height="374px" preserveAspectRatio="none" style="width:586px;height:374px;background:#FFFFFF;" version="1.1" viewBox="0 0 586 374" width="586px" zoomAndPan="magnify"><?plantuml 1.2026.3beta6?><defs/><g><!--class Users--><g class="entity" data-qualified-name="Users" data-source-line="8" id="ent0002"><rect fill="#ADD8E6" height="113.1875" rx="2.5" ry="2.5" style="stroke:#2F4F4F;stroke-width:0.5;" width="149.3682" x="10.8" y="23.3"/><ellipse cx="61.632" cy="39.3" fill="#ADD1B2" rx="11" ry="11" style="stroke:#181818;stroke-width:1;"/><path d="M64.6008,44.9406 Q64.0227,45.2375 63.382,45.3781 Q62.7414,45.5344 62.0383,45.5344 Q59.5383,45.5344 58.2102,43.8937 Q56.8977,42.2375 56.8977,39.1125 Q56.8977,35.9875 58.2102,34.3312 Q59.5383,32.675 62.0383,32.675 Q62.7414,32.675 63.382,32.8312 Q64.0383,32.9875 64.6008,33.2844 L64.6008,36.0031 Q63.9758,35.425 63.382,35.1594 Q62.7883,34.8781 62.1633,34.8781 Q60.8195,34.8781 60.132,35.9562 Q59.4445,37.0187 59.4445,39.1125 Q59.4445,41.2062 60.132,42.2844 Q60.8195,43.3469 62.1633,43.3469 Q62.7883,43.3469 63.382,43.0812 Q63.9758,42.8 64.6008,42.2219 L64.6008,44.9406 Z " fill="#000000"/><text fill="#000000" font-family="sans-serif" font-size="14" lengthAdjust="spacing" textLength="39.2041" x="82.132" y="44.1467">Users</text><line style="stroke:#2F4F4F;stroke-width:0.5;" x1="11.8" x2="159.1682" y1="55.3" y2="55.3"/><text fill="#000000" font-family="sans-serif" font-size="14" lengthAdjust="spacing" textLength="112.7314" x="16.8" y="72.2951">+id : UUID &#171;PK&#187;</text><text fill="#000000" font-family="sans-serif" font-size="14" lengthAdjust="spacing" textLength="137.3682" x="16.8" y="88.592">+username : String</text><text fill="#000000" font-family="sans-serif" font-size="14" lengthAdjust="spacing" textLength="133.8408" x="16.8" y="104.8889">+password : String</text><text fill="#000000" font-family="sans-serif" font-size="14" lengthAdjust="spacing" textLength="98.4033" x="16.8" y="121.1857">+type : String</text><line style="stroke:#2F4F4F;stroke-width:0.5;" x1="11.8" x2="159.1682" y1="128.4875" y2="128.4875"/></g><!--class Tasks--><g class="entity" data-qualified-name="Tasks" data-source-line="15" id="ent0003"><rect fill="#ADD8E6" height="145.7813" rx="2.5" ry="2.5" style="stroke:#2F4F4F;stroke-width:0.5;" width="184.7852" x="195.09" y="7"/><ellipse cx="263.3195" cy="23" fill="#ADD1B2" rx="11" ry="11" style="stroke:#181818;stroke-width:1;"/><path d="M266.2882,28.6406 Q265.7101,28.9375 265.0695,29.0781 Q264.4289,29.2344 263.7257,29.2344 Q261.2257,29.2344 259.8976,27.5938 Q258.5851,25.9375 258.5851,22.8125 Q258.5851,19.6875 259.8976,18.0313 Q261.2257,16.375 263.7257,16.375 Q264.4289,16.375 265.0695,16.5313 Q265.7257,16.6875 266.2882,16.9844 L266.2882,19.7031 Q265.6632,19.125 265.0695,18.8594 Q264.4757,18.5781 263.8507,18.5781 Q262.507,18.5781 261.8195,19.6563 Q261.132,20.7188 261.132,22.8125 Q261.132,24.9063 261.8195,25.9844 Q262.507,27.0469 263.8507,27.0469 Q264.4757,27.0469 265.0695,26.7813 Q265.6632,26.5 266.2882,25.9219 L266.2882,28.6406 Z " fill="#000000"/><text fill="#000000" font-family="sans-serif" font-size="14" lengthAdjust="spacing" textLength="39.8262" x="283.8195" y="27.8467">Tasks</text><line style="stroke:#2F4F4F;stroke-width:0.5;" x1="196.09" x2="378.8752" y1="39" y2="39"/><text fill="#000000" font-family="sans-serif" font-size="14" lengthAdjust="spacing" textLength="112.7314" x="201.09" y="55.9951">+id : UUID &#171;PK&#187;</text><text fill="#000000" font-family="sans-serif" font-size="14" lengthAdjust="spacing" textLength="144.9697" x="201.09" y="72.292">+description : String</text><text fill="#000000" font-family="sans-serif" font-size="14" lengthAdjust="spacing" textLength="107.3379" x="201.09" y="88.5889">+time : Integer</text><text fill="#000000" font-family="sans-serif" font-size="14" lengthAdjust="spacing" textLength="124.5918" x="201.09" y="104.8857">+active : Boolean</text><text fill="#000000" font-family="sans-serif" font-size="14" lengthAdjust="spacing" textLength="168.2051" x="201.09" y="121.1826">+created_at : DateTime</text><text fill="#000000" font-family="sans-serif" font-size="14" lengthAdjust="spacing" textLength="172.7852" x="201.09" y="137.4795">+updated_at : DateTime</text><line style="stroke:#2F4F4F;stroke-width:0.5;" x1="196.09" x2="378.8752" y1="144.7813" y2="144.7813"/></g><!--class Logs--><g class="entity" data-qualified-name="Logs" data-source-line="24" id="ent0004"><rect fill="#ADD8E6" height="113.1875" rx="2.5" ry="2.5" style="stroke:#2F4F4F;stroke-width:0.5;" width="156.9697" x="7" y="237.93"/><ellipse cx="64.9619" cy="253.93" fill="#ADD1B2" rx="11" ry="11" style="stroke:#181818;stroke-width:1;"/><path d="M67.9307,259.5706 Q67.3525,259.8675 66.7119,260.0081 Q66.0713,260.1644 65.3682,260.1644 Q62.8682,260.1644 61.54,258.5237 Q60.2275,256.8675 60.2275,253.7425 Q60.2275,250.6175 61.54,248.9612 Q62.8682,247.305 65.3682,247.305 Q66.0713,247.305 66.7119,247.4612 Q67.3682,247.6175 67.9307,247.9144 L67.9307,250.6331 Q67.3057,250.055 66.7119,249.7894 Q66.1182,249.5081 65.4932,249.5081 Q64.1494,249.5081 63.4619,250.5862 Q62.7744,251.6487 62.7744,253.7425 Q62.7744,255.8362 63.4619,256.9144 Q64.1494,257.9769 65.4932,257.9769 Q66.1182,257.9769 66.7119,257.7112 Q67.3057,257.43 67.9307,256.8519 L67.9307,259.5706 Z " fill="#000000"/><text fill="#000000" font-family="sans-serif" font-size="14" lengthAdjust="spacing" textLength="32.5459" x="85.4619" y="258.7767">Logs</text><line style="stroke:#2F4F4F;stroke-width:0.5;" x1="8" x2="162.9697" y1="269.93" y2="269.93"/><text fill="#000000" font-family="sans-serif" font-size="14" lengthAdjust="spacing" textLength="112.7314" x="13" y="286.9251">+id : UUID &#171;PK&#187;</text><text fill="#000000" font-family="sans-serif" font-size="14" lengthAdjust="spacing" textLength="137.3682" x="13" y="303.222">+username : String</text><text fill="#000000" font-family="sans-serif" font-size="14" lengthAdjust="spacing" textLength="144.9697" x="13" y="319.5189">+description : String</text><text fill="#000000" font-family="sans-serif" font-size="14" lengthAdjust="spacing" textLength="90.3779" x="13" y="335.8157">+date : Date</text><line style="stroke:#2F4F4F;stroke-width:0.5;" x1="8" x2="162.9697" y1="343.1175" y2="343.1175"/></g><!--class NamesOverdue--><g class="entity" data-qualified-name="NamesOverdue" data-source-line="31" id="ent0005"><rect fill="#ADD8E6" height="80.5938" rx="2.5" ry="2.5" style="stroke:#2F4F4F;stroke-width:0.5;" width="140.6436" x="415.16" y="39.6"/><ellipse cx="430.16" cy="55.6" fill="#ADD1B2" rx="11" ry="11" style="stroke:#181818;stroke-width:1;"/><path d="M433.1288,61.2406 Q432.5506,61.5375 431.91,61.6781 Q431.2694,61.8344 430.5663,61.8344 Q428.0663,61.8344 426.7381,60.1937 Q425.4256,58.5375 425.4256,55.4125 Q425.4256,52.2875 426.7381,50.6312 Q428.0663,48.975 430.5663,48.975 Q431.2694,48.975 431.91,49.1312 Q432.5663,49.2875 433.1288,49.5844 L433.1288,52.3031 Q432.5038,51.725 431.91,51.4594 Q431.3163,51.1781 430.6913,51.1781 Q429.3475,51.1781 428.66,52.2562 Q427.9725,53.3187 427.9725,55.4125 Q427.9725,57.5062 428.66,58.5844 Q429.3475,59.6469 430.6913,59.6469 Q431.3163,59.6469 431.91,59.3812 Q432.5038,59.1 433.1288,58.5219 L433.1288,61.2406 Z " fill="#000000"/><text fill="#000000" font-family="sans-serif" font-size="14" lengthAdjust="spacing" textLength="108.6436" x="444.16" y="60.4467">NamesOverdue</text><line style="stroke:#2F4F4F;stroke-width:0.5;" x1="416.16" x2="554.8036" y1="71.6" y2="71.6"/><text fill="#000000" font-family="sans-serif" font-size="14" lengthAdjust="spacing" textLength="112.7314" x="421.16" y="88.5951">+id : UUID &#171;PK&#187;</text><text fill="#000000" font-family="sans-serif" font-size="14" lengthAdjust="spacing" textLength="106.832" x="421.16" y="104.892">+name : String</text><line style="stroke:#2F4F4F;stroke-width:0.5;" x1="416.16" x2="554.8036" y1="112.1937" y2="112.1937"/></g><!--class OutstandingMoney--><g class="entity" data-qualified-name="OutstandingMoney" data-source-line="36" id="ent0006"><rect fill="#ADD8E6" height="129.4844" rx="2.5" ry="2.5" style="stroke:#2F4F4F;stroke-width:0.5;" width="171.0449" x="399.96" y="229.79"/><ellipse cx="417.874" cy="245.79" fill="#ADD1B2" rx="11" ry="11" style="stroke:#181818;stroke-width:1;"/><path d="M420.8428,251.4306 Q420.2646,251.7275 419.624,251.8681 Q418.9834,252.0244 418.2803,252.0244 Q415.7803,252.0244 414.4521,250.3838 Q413.1396,248.7275 413.1396,245.6025 Q413.1396,242.4775 414.4521,240.8213 Q415.7803,239.165 418.2803,239.165 Q418.9834,239.165 419.624,239.3213 Q420.2803,239.4775 420.8428,239.7744 L420.8428,242.4931 Q420.2178,241.915 419.624,241.6494 Q419.0303,241.3681 418.4053,241.3681 Q417.0615,241.3681 416.374,242.4463 Q415.6865,243.5088 415.6865,245.6025 Q415.6865,247.6963 416.374,248.7744 Q417.0615,249.8369 418.4053,249.8369 Q419.0303,249.8369 419.624,249.5713 Q420.2178,249.29 420.8428,248.7119 L420.8428,251.4306 Z " fill="#000000"/><text fill="#000000" font-family="sans-serif" font-size="14" lengthAdjust="spacing" textLength="132.5693" x="432.5216" y="250.6367">OutstandingMoney</text><line style="stroke:#2F4F4F;stroke-width:0.5;" x1="400.96" x2="570.0049" y1="261.79" y2="261.79"/><text fill="#000000" font-family="sans-serif" font-size="14" lengthAdjust="spacing" textLength="112.7314" x="405.96" y="278.7851">+id : UUID &#171;PK&#187;</text><text fill="#000000" font-family="sans-serif" font-size="14" lengthAdjust="spacing" textLength="159.0449" x="405.96" y="295.082">+id_name : UUID &#171;FK&#187;</text><text fill="#000000" font-family="sans-serif" font-size="14" lengthAdjust="spacing" textLength="106.832" x="405.96" y="311.3789">+name : String</text><text fill="#000000" font-family="sans-serif" font-size="14" lengthAdjust="spacing" textLength="113.9414" x="405.96" y="327.6757">+amount : Float</text><text fill="#000000" font-family="sans-serif" font-size="14" lengthAdjust="spacing" textLength="90.3779" x="405.96" y="343.9726">+date : Date</text><line style="stroke:#2F4F4F;stroke-width:0.5;" x1="400.96" x2="570.0049" y1="351.2744" y2="351.2744"/></g><!--reverse link NamesOverdue to OutstandingMoney--><g class="link" data-entity-1="ent0005" data-entity-2="ent0006" data-link-type="aggregation" data-source-line="44" id="lnk7"><path codeLine="44" d="M485.48,132.39 C485.48,163.02 485.48,194.08 485.48,229.6" fill="none" id="NamesOverdue-backto-OutstandingMoney" style="stroke:#2F4F4F;stroke-width:1;"/><polygon fill="none" points="485.48,120.39,481.48,126.39,485.48,132.39,489.48,126.39,485.48,120.39" style="stroke:#2F4F4F;stroke-width:1;"/><text fill="#000000" font-family="sans-serif" font-size="13" lengthAdjust="spacing" textLength="50.3433" x="486.48" y="195.8569">zawiera</text><text fill="#000000" font-family="sans-serif" font-size="13" lengthAdjust="spacing" textLength="8.271" x="476.8638" y="140.1164">1</text><text fill="#000000" font-family="sans-serif" font-size="13" lengthAdjust="spacing" textLength="23.0356" x="461.2239" y="218.7519">0..*</text></g><?plantuml-src bP91Qm8n48Nl-ol27biizYeYQCKYjRMWdcMw6RPXrymocLMqzBztecAxT2tq5hwNUUzDI2YShu1XOx8IGXYAi7kh1QSP-OKxeEaceNd5V2J6Z20hSgRQsmSgYStCvUyoAckC6h55Fl4nSB4eGV2HOQ_Qa9bsRT9dafpSLm7vb77hhEcPrMewDlt-wzDW45cjieSDghBGgZwFiDB1dQOseEoh7xSk_ai8nH_-5aF6hX97lkdcZfbJBvWZHmAPk6ra8w8ImKUMCUf2TWsYVAp7fOuTQrUsHRYKcb7-tvsl5Oqvvunl_nUT3lCjigtnUaupup8yhoK8UAlmcJpkhniukpvxd8L9gtDyl8t-dVWMav90Mdet6gVtgQ5EnwJTkxkRz7UXdZd0pY735m00?></g></svg>