<svg xmlns="http://www.w3.org/2000/svg" xmlns:xlink="http://www.w3.org/1999/xlink" contentStyleType="text/css" data-diagram-type="DESCRIPTION" height="1015px" preserveAspectRatio="none" style="width:611px;height:1015px;background:#FFFFFF;" version="1.1" viewBox="0 0 611 1015" width="611px" zoomAndPan="magnify"><?plantuml 1.2026.3beta6?><defs/><g><!--cluster System Zarzadzania Finansami i Zadaniami--><g class="cluster" data-qualified-name="System Zarzadzania Finansami i Zadaniami" data-source-line="15" id="ent0007"><rect fill="none" height="888" rx="2.5" ry="2.5" style="stroke:#181818;stroke-width:1;" width="357.2" x="240.74" y="113.8"/><text fill="#000000" font-family="sans-serif" font-size="14" font-weight="700" lengthAdjust="spacing" textLength="342.1182" x="248.2809" y="128.7951">System Zarzadzania Finansami i Zadaniami</text></g><!--entity UC1--><g class="entity" data-qualified-name="System Zarzadzania Finansami i Zadaniami.UC1" data-source-line="17" id="ent0008"><ellipse cx="419.3371" cy="881.7974" fill="#FFFFE0" rx="72.7871" ry="16.9574" style="stroke:#2F4F4F;stroke-width:0.5;"/><text fill="#000000" font-family="sans-serif" font-size="14" lengthAdjust="spacing" textLength="113.3193" x="362.6775" y="886.4459">UC1: Logowanie</text></g><!--entity UC2--><g class="entity" data-qualified-name="System Zarzadzania Finansami i Zadaniami.UC2" data-source-line="19" id="ent0009"><ellipse cx="419.3447" cy="336.8029" fill="#FFFFE0" rx="90.7647" ry="20.5529" style="stroke:#2F4F4F;stroke-width:0.5;"/><text fill="#000000" font-family="sans-serif" font-size="14" lengthAdjust="spacing" textLength="155.4697" x="341.6098" y="341.4514">UC2: Dodanie zadania</text></g><!--entity UC3--><g class="entity" data-qualified-name="System Zarzadzania Finansami i Zadaniami.UC3" data-source-line="20" id="ent0010"><ellipse cx="419.3378" cy="414.7996" fill="#FFFFE0" rx="99.5978" ry="22.3196" style="stroke:#2F4F4F;stroke-width:0.5;"/><text fill="#000000" font-family="sans-serif" font-size="14" lengthAdjust="spacing" textLength="175.1709" x="331.7524" y="419.448">UC3: Przegladanie zadan</text></g><!--entity UC4--><g class="entity" data-qualified-name="System Zarzadzania Finansami i Zadaniami.UC4" data-source-line="21" id="ent0011"><ellipse cx="419.3357" cy="491.7991" fill="#FFFFE0" rx="85.4957" ry="19.4991" style="stroke:#2F4F4F;stroke-width:0.5;"/><text fill="#000000" font-family="sans-serif" font-size="14" lengthAdjust="spacing" textLength="143.4658" x="347.6028" y="496.4476">UC4: Edycja zadania</text></g><!--entity UC5--><g class="entity" data-qualified-name="System Zarzadzania Finansami i Zadaniami.UC5" data-source-line="22" id="ent0012"><ellipse cx="419.344" cy="567.7968" fill="#FFFFE0" rx="95.134" ry="21.4268" style="stroke:#2F4F4F;stroke-width:0.5;"/><text fill="#000000" font-family="sans-serif" font-size="14" lengthAdjust="spacing" textLength="165.2725" x="336.7078" y="572.4452">UC5: Usuniecie zadania</text></g><!--entity UC6--><g class="entity" data-qualified-name="System Zarzadzania Finansami i Zadaniami.UC6" data-source-line="23" id="ent0013"><ellipse cx="419.3434" cy="644.7967" fill="#FFFFE0" rx="90.3834" ry="20.4767" style="stroke:#2F4F4F;stroke-width:0.5;"/><text fill="#000000" font-family="sans-serif" font-size="14" lengthAdjust="spacing" textLength="154.6084" x="342.0392" y="649.4451">UC6: Statystyki zadan</text></g><!--entity UC7--><g class="entity" data-qualified-name="System Zarzadzania Finansami i Zadaniami.UC7" data-source-line="25" id="ent0014"><ellipse cx="419.3433" cy="723.799" fill="#FFFFE0" rx="94.4633" ry="23.839" style="stroke:#2F4F4F;stroke-width:0.5;"/><text fill="#000000" font-family="sans-serif" font-size="14" lengthAdjust="spacing" textLength="143.0557" x="347.8155" y="723.6084">UC7: Tworzenie listy</text><text fill="#000000" font-family="sans-serif" font-size="14" lengthAdjust="spacing" textLength="61.9814" x="388.3526" y="739.9052">rozliczen</text></g><!--entity UC8--><g class="entity" data-qualified-name="System Zarzadzania Finansami i Zadaniami.UC8" data-source-line="26" id="ent0015"><ellipse cx="419.3401" cy="805.797" fill="#FFFFE0" rx="97.6201" ry="23.657" style="stroke:#2F4F4F;stroke-width:0.5;"/><text fill="#000000" font-family="sans-serif" font-size="14" lengthAdjust="spacing" textLength="149.2969" x="344.6917" y="805.9004">UC8: Dodanie pozycji</text><text fill="#000000" font-family="sans-serif" font-size="14" lengthAdjust="spacing" textLength="50.75" x="393.9651" y="822.1973">do listy</text></g><!--entity UC9--><g class="entity" data-qualified-name="System Zarzadzania Finansami i Zadaniami.UC9" data-source-line="27" id="ent0016"><ellipse cx="419.3417" cy="959.7984" fill="#FFFFE0" rx="79.0117" ry="25.9484" style="stroke:#2F4F4F;stroke-width:0.5;"/><text fill="#000000" font-family="sans-serif" font-size="14" lengthAdjust="spacing" textLength="106.0869" x="366.2982" y="956.1582">UC9: Usuniecie</text><text fill="#000000" font-family="sans-serif" font-size="14" lengthAdjust="spacing" textLength="107.96" x="365.3617" y="972.4551">pozycji lub listy</text></g><!--entity UC10--><g class="entity" data-qualified-name="System Zarzadzania Finansami i Zadaniami.UC10" data-source-line="29" id="ent0017"><ellipse cx="419.3375" cy="173.8008" fill="#FFFFE0" rx="83.8875" ry="25.0208" style="stroke:#2F4F4F;stroke-width:0.5;"/><text fill="#000000" font-family="sans-serif" font-size="14" lengthAdjust="spacing" textLength="119.7246" x="359.4752" y="171.788">UC10: Obliczenie</text><text fill="#000000" font-family="sans-serif" font-size="14" lengthAdjust="spacing" textLength="95.4023" x="371.6363" y="188.0849">kosztu paliwa</text></g><!--entity UC11--><g class="entity" data-qualified-name="System Zarzadzania Finansami i Zadaniami.UC11" data-source-line="31" id="ent0018"><ellipse cx="419.3437" cy="257.8048" fill="#FFFFE0" rx="89.7937" ry="23.5948" style="stroke:#2F4F4F;stroke-width:0.5;"/><text fill="#000000" font-family="sans-serif" font-size="14" lengthAdjust="spacing" textLength="137.3613" x="350.663" y="258.0097">UC11: Przegladanie</text><text fill="#000000" font-family="sans-serif" font-size="14" lengthAdjust="spacing" textLength="41.3574" x="398.665" y="274.3066">logow</text></g><!--entity Guest--><g class="entity" data-qualified-name="Guest" data-source-line="8" id="ent0002"><ellipse cx="419.3411" cy="14" fill="#F1F1F1" rx="8" ry="8" style="stroke:#181818;stroke-width:0.5;"/><path d="M419.3411,22 L419.3411,49 M406.3411,30 L432.3411,30 M419.3411,49 L406.3411,64 M419.3411,49 L432.3411,64" fill="none" style="stroke:#181818;stroke-width:0.5;"/><text fill="#000000" font-family="sans-serif" font-size="14" lengthAdjust="spacing" textLength="41.1182" x="361.68" y="78.4951">Guest</text><text fill="#000000" font-family="sans-serif" font-size="14" lengthAdjust="spacing" textLength="115.3223" x="361.68" y="94.792">(niezalogowany)</text></g><!--entity Admin--><g class="entity" data-qualified-name="Admin" data-source-line="9" id="ent0003"><ellipse cx="174.3121" cy="225.15" fill="#F1F1F1" rx="8" ry="8" style="stroke:#181818;stroke-width:0.5;"/><path d="M174.3121,233.15 L174.3121,260.15 M161.3121,241.15 L187.3121,241.15 M174.3121,260.15 L161.3121,275.15 M174.3121,260.15 L187.3121,275.15" fill="none" style="stroke:#181818;stroke-width:0.5;"/><text fill="#000000" font-family="sans-serif" font-size="14" lengthAdjust="spacing" textLength="44.8643" x="151.88" y="289.6451">Admin</text></g><!--entity SuperAdmin--><g class="entity" data-qualified-name="SuperAdmin" data-source-line="10" id="ent0004"><ellipse cx="48.9399" cy="538.15" fill="#F1F1F1" rx="8" ry="8" style="stroke:#181818;stroke-width:0.5;"/><path d="M48.9399,546.15 L48.9399,573.15 M35.9399,554.15 L61.9399,554.15 M48.9399,573.15 L35.9399,588.15 M48.9399,573.15 L61.9399,588.15" fill="none" style="stroke:#181818;stroke-width:0.5;"/><text fill="#000000" font-family="sans-serif" font-size="14" lengthAdjust="spacing" textLength="85.8799" x="6" y="602.6451">SuperAdmin</text></g><!--link Admin to Guest--><g class="link" data-entity-1="ent0003" data-entity-2="ent0002" data-link-type="extension" data-source-line="12" id="lnk5"><path d="M185.53,216.42 C194.27,189.99 209.24,155.64 232.74,132.8 C268.42,98.13 304.1031,82.1587 344.3231,70.2287" fill="none" id="Admin-to-Guest" style="stroke:#181818;stroke-width:1;"/><polygon fill="none" points="361.58,65.11,342.6169,64.4764,346.0294,75.981,361.58,65.11" style="stroke:#181818;stroke-width:1;"/></g><!--link SuperAdmin to Admin--><g class="link" data-entity-1="ent0004" data-entity-2="ent0003" data-link-type="extension" data-source-line="13" id="lnk6"><path d="M65.07,529.42 C88.81,469.18 127.9496,369.8762 151.6496,309.7462" fill="none" id="SuperAdmin-to-Admin" style="stroke:#181818;stroke-width:1;"/><polygon fill="none" points="158.25,293,146.0675,307.546,157.2316,311.9463,158.25,293" style="stroke:#181818;stroke-width:1;"/></g><!--link Guest to UC1--><g class="link" data-entity-1="ent0002" data-entity-2="ent0008" data-link-type="dependency" data-source-line="34" id="lnk19"><path d="M361.53,59.12 C309.87,69.31 238.76,93.47 214.74,150.3 C200.06,185.05 200.06,794.55 214.74,829.3 C235.79,879.13 294.5104,889.0317 345.5804,888.4217" fill="none" id="Guest-to-UC1" style="stroke:#181818;stroke-width:1;"/><polygon fill="#181818" points="351.58,888.35,342.5329,884.4578,346.5804,888.4097,342.6284,892.4572,351.58,888.35" style="stroke:#181818;stroke-width:1;"/></g><!--link Admin to UC10--><g class="link" data-entity-1="ent0003" data-entity-2="ent0017" data-link-type="dependency" data-source-line="36" id="lnk20"><path d="M197.16,237.66 C207.46,230.31 220.22,222.18 232.74,216.8 C267.84,201.71 303.1584,192.6155 337.8184,185.9355" fill="none" id="Admin-to-UC10" style="stroke:#181818;stroke-width:1;"/><polygon fill="#181818" points="343.71,184.8,334.1156,182.5755,338.8004,185.7462,335.6296,190.4309,343.71,184.8" style="stroke:#181818;stroke-width:1;"/></g><!--link Admin to UC11--><g class="link" data-entity-1="ent0003" data-entity-2="ent0018" data-link-type="dependency" data-source-line="37" id="lnk21"><path d="M196.88,255.07 C226.5,255.43 275.5505,256.0359 323.3505,256.6259" fill="none" id="Admin-to-UC11" style="stroke:#181818;stroke-width:1;"/><polygon fill="#181818" points="329.35,256.7,320.4001,252.5892,324.3504,256.6383,320.3013,260.5886,329.35,256.7" style="stroke:#181818;stroke-width:1;"/></g><!--link SuperAdmin to UC2--><g class="link" data-entity-1="ent0004" data-entity-2="ent0009" data-link-type="dependency" data-source-line="39" id="lnk22"><path d="M74.94,529.44 C106.22,484.76 164.1,412.32 232.74,374.8 C263.19,358.16 294.1461,349.7327 326.9761,344.4527" fill="none" id="SuperAdmin-to-UC2" style="stroke:#181818;stroke-width:1;"/><polygon fill="#181818" points="332.9,343.5,323.379,340.9798,327.9634,344.2939,324.6493,348.8783,332.9,343.5" style="stroke:#181818;stroke-width:1;"/></g><!--link SuperAdmin to UC3--><g class="link" data-entity-1="ent0004" data-entity-2="ent0010" data-link-type="dependency" data-source-line="40" id="lnk23"><path d="M92.02,535.97 C127.71,510.45 181.18,475.57 232.74,454.8 C264.85,441.87 295.9458,433.9318 328.4158,427.7518" fill="none" id="SuperAdmin-to-UC3" style="stroke:#181818;stroke-width:1;"/><polygon fill="#181818" points="334.31,426.63,324.7208,424.3833,329.3982,427.5649,326.2166,432.2422,334.31,426.63" style="stroke:#181818;stroke-width:1;"/></g><!--link SuperAdmin to UC4--><g class="link" data-entity-1="ent0004" data-entity-2="ent0011" data-link-type="dependency" data-source-line="41" id="lnk24"><path d="M91.95,556.44 C110.29,551.65 132.08,546.18 151.88,541.8 C218.75,527.01 289.7698,513.914 343.7298,504.474" fill="none" id="SuperAdmin-to-UC4" style="stroke:#181818;stroke-width:1;"/><polygon fill="#181818" points="349.64,503.44,340.0853,501.0508,344.7148,504.3016,341.464,508.9311,349.64,503.44" style="stroke:#181818;stroke-width:1;"/></g><!--link SuperAdmin to UC5--><g class="link" data-entity-1="ent0004" data-entity-2="ent0012" data-link-type="dependency" data-source-line="42" id="lnk25"><path d="M92.2,567.8 C148.33,567.8 243.09,567.8 317.81,567.8" fill="none" id="SuperAdmin-to-UC5" style="stroke:#181818;stroke-width:1;"/><polygon fill="#181818" points="323.81,567.8,314.81,563.8,318.81,567.8,314.81,571.8,323.81,567.8" style="stroke:#181818;stroke-width:1;"/></g><!--link SuperAdmin to UC6--><g class="link" data-entity-1="ent0004" data-entity-2="ent0013" data-link-type="dependency" data-source-line="43" id="lnk26"><path d="M92.03,576.88 C129.07,584.85 184.46,596.71 232.74,606.8 C271.86,614.98 309.7709,622.7515 344.9909,629.9315" fill="none" id="SuperAdmin-to-UC6" style="stroke:#181818;stroke-width:1;"/><polygon fill="#181818" points="350.87,631.13,342.8504,625.4128,345.9708,630.1312,341.2524,633.2516,350.87,631.13" style="stroke:#181818;stroke-width:1;"/></g><!--link SuperAdmin to UC7--><g class="link" data-entity-1="ent0004" data-entity-2="ent0014" data-link-type="dependency" data-source-line="44" id="lnk27"><path d="M92.32,600.42 C127.97,626.35 181.23,661.66 232.74,682.8 C265.56,696.27 297.6479,704.5272 330.6779,710.8772" fill="none" id="SuperAdmin-to-UC7" style="stroke:#181818;stroke-width:1;"/><polygon fill="#181818" points="336.57,712.01,328.487,706.3828,331.6599,711.066,326.9767,714.2389,336.57,712.01" style="stroke:#181818;stroke-width:1;"/></g><!--link SuperAdmin to UC8--><g class="link" data-entity-1="ent0004" data-entity-2="ent0015" data-link-type="dependency" data-source-line="45" id="lnk28"><path d="M74.67,606.21 C105.89,651.44 163.91,725.38 232.74,764.8 C261.52,781.28 290.4117,790.0401 322.0517,795.9401" fill="none" id="SuperAdmin-to-UC8" style="stroke:#181818;stroke-width:1;"/><polygon fill="#181818" points="327.95,797.04,319.8358,791.458,323.0347,796.1234,318.3693,799.3224,327.95,797.04" style="stroke:#181818;stroke-width:1;"/></g><!--link SuperAdmin to UC9--><g class="link" data-entity-1="ent0004" data-entity-2="ent0016" data-link-type="dependency" data-source-line="46" id="lnk29"><path d="M58.87,606.26 C77.76,678.67 128.82,835.15 232.74,915.8 C263.35,939.55 298.8116,949.9322 334.7416,955.1222" fill="none" id="SuperAdmin-to-UC9" style="stroke:#181818;stroke-width:1;"/><polygon fill="#181818" points="340.68,955.98,332.3443,950.7344,335.7314,955.2652,331.2006,958.6522,340.68,955.98" style="stroke:#181818;stroke-width:1;"/></g><?plantuml-src PL9DJ-Cm4BtdLunwsZqWKVgTGwMbNRWWiLBX0CfbI8RiR1oxiXrLoS9_n_cYTN9A_EQzvpVZ4VHkmIhGdFwraB2csBAIWSbO7b5Z3aUCCqpfO4j1K9THfe8k28MX60t1_m3Wrf5JhGgPx9HG6XvgsnSIGftggj89wRQoHvqT15gwrrW6dq60iNNmvBuWOoFvGp9LA5IgJYZBdnD00qsfv_rASfODtFpryA4uaZxNpiSWQ3vmTVMnxPpEnHRjUDyzEhVIMChX5NM5IOMI4UvOeZIOCx33anhBUUAQT_travWyxwOXFBJXcPea3XfGRaBOgzg0e6gDEkADpvk5y4TNb0gy87VKcK-TX_0xAUD_E72S-xH52C-cS5xnwEw5pro6SB1etHZAZBsRbuDkLY4ydPJBMKSKx0IHrAeI73keqwnyoVeyWAEgN6oEPA9QSQTO-uhDHV18TY8GnPidsWpVuZg4nxSsIQtBbAbiuHPRyAdlUtez54tziKUoMSQUFgrNjbaZjplRzdNxLTgsVjxHbRrrspRlF89cOsW-XXPZQ3c6LcDeFOOsNm00?></g></svg>